<?xml version="1.0" encoding="UTF-8"?>
<!DOCTYPE svg PUBLIC "-//W3C//DTD SVG 1.1//EN" "http://www.w3.org/Graphics/SVG/1.1/DTD/svg11.dtd">
<svg xmlns="http://www.w3.org/2000/svg" version="1.1" width="50px" height="50px" style="shape-rendering:geometricPrecision; text-rendering:geometricPrecision; image-rendering:optimizeQuality; fill-rule:evenodd; clip-rule:evenodd" xmlns:xlink="http://www.w3.org/1999/xlink">
<g><path style="opacity:1" fill="#9ba3ae" d="M -0.5,6.5 C 16.1667,6.5 32.8333,6.5 49.5,6.5C 49.5,18.5 49.5,30.5 49.5,42.5C 32.8333,42.5 16.1667,42.5 -0.5,42.5C -0.5,30.5 -0.5,18.5 -0.5,6.5 Z M 1.5,8.5 C 16.8333,8.5 32.1667,8.5 47.5,8.5C 47.5,19.1667 47.5,29.8333 47.5,40.5C 32.1667,40.5 16.8333,40.5 1.5,40.5C 1.5,29.8333 1.5,19.1667 1.5,8.5 Z"/></g>
<g><path style="opacity:0.973" fill="#9da3b0" d="M 3.5,12.5 C 10.3098,16.7411 17.3098,20.7411 24.5,24.5C 31.5797,20.8784 38.4131,16.8784 45,12.5C 45.7203,14.1124 45.5536,15.6124 44.5,17C 37.9623,21.0331 31.2957,24.8665 24.5,28.5C 17.7043,24.8665 11.0377,21.0331 4.5,17C 3.61983,15.6439 3.28649,14.1439 3.5,12.5 Z"/></g>
</svg>
