<?xml version="1.0" encoding="UTF-8"?>
<!DOCTYPE svg PUBLIC "-//W3C//DTD SVG 1.1//EN" "http://www.w3.org/Graphics/SVG/1.1/DTD/svg11.dtd">
<svg xmlns="http://www.w3.org/2000/svg" version="1.1" width="50px" height="50px" style="shape-rendering:geometricPrecision; text-rendering:geometricPrecision; image-rendering:optimizeQuality; fill-rule:evenodd; clip-rule:evenodd" xmlns:xlink="http://www.w3.org/1999/xlink">
<g><path style="opacity:0.782" fill="#9ca3ae" d="M 13.5,3.5 C 12.8333,4.16667 12.1667,4.83333 11.5,5.5C 9.24595,6.41511 7.24595,7.74844 5.5,9.5C 4.59603,8.79105 4.26269,7.79105 4.5,6.5C 6.76238,2.8593 9.76238,1.8593 13.5,3.5 Z"/></g>
<g><path style="opacity:0.981" fill="#9ca1ae" d="M 13.5,3.5 C 14.8897,4.89928 15.8897,6.56594 16.5,8.5C 15.6618,8.84171 15.3284,9.50838 15.5,10.5C 13.9373,9.05522 12.604,7.38855 11.5,5.5C 12.1667,4.83333 12.8333,4.16667 13.5,3.5 Z"/></g>
<g><path style="opacity:0.894" fill="#9ca1af" d="M 4.5,6.5 C 4.26269,7.79105 4.59603,8.79105 5.5,9.5C 5.5,10.1667 5.5,10.8333 5.5,11.5C 4.73209,12.2625 4.23209,13.2625 4,14.5C 3.80912,12.2922 3.30912,10.2922 2.5,8.5C 2.83333,7.5 3.5,6.83333 4.5,6.5 Z"/></g>
<g><path style="opacity:0.839" fill="#9ba2ad" d="M 2.5,8.5 C 3.30912,10.2922 3.80912,12.2922 4,14.5C 4.23209,13.2625 4.73209,12.2625 5.5,11.5C 5.62867,13.2161 5.962,14.8828 6.5,16.5C 5.60895,15.8902 4.60895,15.5569 3.5,15.5C 2.53178,13.3926 2.19845,11.0593 2.5,8.5 Z"/></g>
<g><path style="opacity:1" fill="#9ba2ae" d="M 16.5,8.5 C 17.9063,8.97306 18.573,9.97306 18.5,11.5C 17.8333,11.8333 17.1667,12.1667 16.5,12.5C 15.6618,12.1583 15.3284,11.4916 15.5,10.5C 15.3284,9.50838 15.6618,8.84171 16.5,8.5 Z"/></g>
<g><path style="opacity:0.784" fill="#a3aab5" d="M 18.5,11.5 C 19.2674,12.172 19.9341,13.0053 20.5,14C 20.2716,14.3988 19.9382,14.5654 19.5,14.5C 18.7784,14.9175 18.2784,15.5842 18,16.5C 17.7216,15.5842 17.2216,14.9175 16.5,14.5C 16.5,13.8333 16.5,13.1667 16.5,12.5C 17.1667,12.1667 17.8333,11.8333 18.5,11.5 Z"/></g>
<g><path style="opacity:0.854" fill="#a2abb5" d="M 3.5,15.5 C 4.60895,15.5569 5.60895,15.8902 6.5,16.5C 7.33825,16.8417 7.67158,17.5084 7.5,18.5C 6.5,18.8333 5.83333,19.5 5.5,20.5C 4.06873,19.2196 3.40206,17.5529 3.5,15.5 Z"/></g>
<g><path style="opacity:1" fill="#9aa0ab" d="M 16.5,14.5 C 17.2216,14.9175 17.7216,15.5842 18,16.5C 18.2784,15.5842 18.7784,14.9175 19.5,14.5C 19.7709,16.3797 19.1042,17.713 17.5,18.5C 16.5,18.5 15.5,18.5 14.5,18.5C 15.1667,17.1667 15.8333,15.8333 16.5,14.5 Z"/></g>
<g><path style="opacity:0.798" fill="#a3a9b4" d="M 14.5,18.5 C 15.5,18.5 16.5,18.5 17.5,18.5C 17.5,19.1667 17.5,19.8333 17.5,20.5C 16.8333,21.1667 16.1667,21.8333 15.5,22.5C 13.8906,21.3346 13.5573,20.0012 14.5,18.5 Z"/></g>
<g><path style="opacity:0.836" fill="#9ba2af" d="M 7.5,18.5 C 9.48837,21.1283 11.4884,23.795 13.5,26.5C 12.1667,26.5 10.8333,26.5 9.5,26.5C 7.77445,24.7721 6.44112,22.7721 5.5,20.5C 5.83333,19.5 6.5,18.8333 7.5,18.5 Z"/></g>
<g><path style="opacity:0.946" fill="#9ba1af" d="M 17.5,20.5 C 18.5,20.8333 19.1667,21.5 19.5,22.5C 18.5946,23.7024 18.5946,25.0357 19.5,26.5C 17.8333,25.5 16.5,24.1667 15.5,22.5C 16.1667,21.8333 16.8333,21.1667 17.5,20.5 Z"/></g>
<g><path style="opacity:0.954" fill="#a4abb5" d="M 19.5,22.5 C 21.1667,24.8333 23.1667,26.8333 25.5,28.5C 24.609,29.1098 23.609,29.4431 22.5,29.5C 21.1667,28.8333 20.1667,27.8333 19.5,26.5C 18.5946,25.0357 18.5946,23.7024 19.5,22.5 Z"/></g>
<g><path style="opacity:0.88" fill="#9ca1ad" d="M 9.5,26.5 C 10.8333,26.5 12.1667,26.5 13.5,26.5C 14.5,26.8333 15.1667,27.5 15.5,28.5C 15.5,29.1667 15.5,29.8333 15.5,30.5C 14.2058,29.7101 13.0391,28.7101 12,27.5C 11.6012,27.7284 11.4346,28.0618 11.5,28.5C 10.5,28.1667 9.83333,27.5 9.5,26.5 Z"/></g>
<g><path style="opacity:0.529" fill="#9ba2ae" d="M 15.5,30.5 C 16.5063,30.9377 16.5063,31.6043 15.5,32.5C 13.8333,31.5 12.5,30.1667 11.5,28.5C 11.4346,28.0618 11.6012,27.7284 12,27.5C 13.0391,28.7101 14.2058,29.7101 15.5,30.5 Z"/></g>
<g><path style="opacity:0.953" fill="#9ca2ae" d="M 25.5,28.5 C 26.5,28.8333 27.1667,29.5 27.5,30.5C 27.4361,31.3652 27.1027,32.3652 26.5,33.5C 24.8333,32.5 23.5,31.1667 22.5,29.5C 23.609,29.4431 24.609,29.1098 25.5,28.5 Z"/></g>
<g><path style="opacity:0.867" fill="#9ca2ae" d="M 37.5,30.5 C 37.6716,31.4916 37.3382,32.1583 36.5,32.5C 34.2972,32.6036 32.2972,33.2702 30.5,34.5C 30.4431,33.391 30.1098,32.391 29.5,31.5C 32.0342,29.4077 34.7008,29.0744 37.5,30.5 Z"/></g>
<g><path style="opacity:0.727" fill="#9ba3ae" d="M 37.5,30.5 C 39.0618,30.7329 40.3951,31.3995 41.5,32.5C 41.5,33.8333 40.8333,34.5 39.5,34.5C 38.2905,34.0679 37.2905,33.4013 36.5,32.5C 37.3382,32.1583 37.6716,31.4916 37.5,30.5 Z"/></g>
<g><path style="opacity:1" fill="#aeb3bd" d="M 15.5,28.5 C 16.8333,29.8333 18.1667,31.1667 19.5,32.5C 18.1667,32.5 16.8333,32.5 15.5,32.5C 16.5063,31.6043 16.5063,30.9377 15.5,30.5C 15.5,29.8333 15.5,29.1667 15.5,28.5 Z"/></g>
<g><path style="opacity:0.804" fill="#a1a8b4" d="M 27.5,30.5 C 28.1667,30.8333 28.8333,31.1667 29.5,31.5C 30.1098,32.391 30.4431,33.391 30.5,34.5C 28.9988,35.4427 27.6654,35.1094 26.5,33.5C 27.1027,32.3652 27.4361,31.3652 27.5,30.5 Z"/></g>
<g><path style="opacity:0.6" fill="#9ca3ae" d="M 15.5,32.5 C 16.8333,32.5 18.1667,32.5 19.5,32.5C 20.5,32.8333 21.1667,33.5 21.5,34.5C 21.631,35.2389 21.4643,35.9056 21,36.5C 20.31,35.2617 19.81,35.2617 19.5,36.5C 17.8333,35.5 16.5,34.1667 15.5,32.5 Z"/></g>
<g><path style="opacity:1" fill="#9ba2ae" d="M 41.5,32.5 C 42.5,33.1667 43.5,33.8333 44.5,34.5C 44.4431,35.609 44.1098,36.609 43.5,37.5C 42.1283,36.4884 40.795,35.4884 39.5,34.5C 40.8333,34.5 41.5,33.8333 41.5,32.5 Z"/></g>
<g><path style="opacity:0.865" fill="#9ba1ad" d="M 21.5,34.5 C 23.5248,36.1964 25.5248,37.863 27.5,39.5C 26.791,40.404 25.791,40.7373 24.5,40.5C 22.246,39.8763 20.5794,38.543 19.5,36.5C 19.81,35.2617 20.31,35.2617 21,36.5C 21.4643,35.9056 21.631,35.2389 21.5,34.5 Z"/></g>
<g><path style="opacity:0.955" fill="#9ba2ad" d="M 44.5,34.5 C 47.0595,37.0898 47.0595,39.7565 44.5,42.5C 43.791,41.596 42.791,41.2627 41.5,41.5C 42.6005,40.3951 43.2671,39.0618 43.5,37.5C 44.1098,36.609 44.4431,35.609 44.5,34.5 Z"/></g>
<g><path style="opacity:0.835" fill="#9ca3ae" d="M 27.5,39.5 C 28.7095,39.9321 29.7095,40.5987 30.5,41.5C 29.791,42.404 28.791,42.7373 27.5,42.5C 25.9731,42.573 24.9731,41.9063 24.5,40.5C 25.791,40.7373 26.791,40.404 27.5,39.5 Z"/></g>
<g><path style="opacity:0.792" fill="#9ca9b3" d="M 30.5,41.5 C 31.609,41.5569 32.609,41.8902 33.5,42.5C 33.5,43.5 33.5,44.5 33.5,45.5C 30.911,45.539 28.911,44.539 27.5,42.5C 28.791,42.7373 29.791,42.404 30.5,41.5 Z"/></g>
<g><path style="opacity:0.923" fill="#9ba2ae" d="M 41.5,41.5 C 42.791,41.2627 43.791,41.596 44.5,42.5C 41.6426,46.4818 37.976,47.4818 33.5,45.5C 33.5,44.5 33.5,43.5 33.5,42.5C 36.4109,43.9835 39.0775,43.6502 41.5,41.5 Z"/></g>
</svg>
