<?xml version="1.0" standalone="no"?>
<!DOCTYPE svg PUBLIC "-//W3C//DTD SVG 20010904//EN"
 "http://www.w3.org/TR/2001/REC-SVG-20010904/DTD/svg10.dtd">
<svg version="1.0" xmlns="http://www.w3.org/2000/svg"
 width="48.000000pt" height="48.000000pt" viewBox="0 0 48.000000 48.000000"
 preserveAspectRatio="xMidYMid meet">

<g transform="translate(0.000000,48.000000) scale(0.100000,-0.100000)"
fill="#059DFF" stroke="none">
<path d="M208 433 c-32 -8 -19 -23 20 -23 34 0 40 -4 53 -32 13 -30 18 -33 56
-32 34 0 44 -4 54 -23 10 -19 10 -26 -3 -40 -26 -31 -28 -51 -6 -78 30 -39 14
-70 -37 -70 -24 0 -40 -5 -43 -14 -3 -10 0 -12 12 -8 9 4 27 2 41 -3 20 -8 28
-5 44 16 32 41 36 64 12 80 -12 9 -21 24 -21 34 0 10 9 25 21 34 24 16 20 39
-12 80 -17 22 -23 24 -44 14 -29 -13 -55 -4 -55 19 0 10 -4 24 -8 30 -9 14
-58 24 -84 16z"/>
<path d="M88 363 c-8 -10 -21 -29 -28 -41 -10 -21 -9 -27 9 -46 26 -28 27 -51
1 -69 -22 -16 -20 -33 12 -79 16 -24 22 -26 43 -16 33 15 52 5 60 -31 6 -29 9
-31 56 -31 27 0 49 5 49 10 0 6 -17 10 -37 10 -33 0 -40 5 -53 33 -14 29 -19
32 -57 31 -33 0 -44 4 -54 22 -10 19 -8 27 10 50 23 29 21 60 -7 81 -12 10
-13 17 -4 38 9 20 18 24 48 22 21 -1 39 3 41 9 2 7 -6 12 -19 11 -13 0 -30 3
-39 7 -9 4 -21 0 -31 -11z"/>
<path d="M232 259 c-14 -59 -15 -89 -4 -89 9 0 32 88 32 121 0 37 -17 18 -28
-32z"/>
<path d="M160 265 l-24 -26 27 -26 c30 -30 50 -24 22 7 -17 19 -17 21 -2 38
35 38 12 45 -23 7z"/>
<path d="M280 283 c0 -3 7 -15 17 -25 15 -17 15 -19 -2 -38 -28 -31 -8 -37 22
-7 l27 26 -24 26 c-23 24 -40 32 -40 18z"/>
</g>
</svg>
